<?xml version="1.0" encoding="utf-8"?>
<svg version="1.1" xmlns="http://www.w3.org/2000/svg" xmlns:xlink="http://www.w3.org/1999/xlink" width="100%" height="100%" preserveAspectRatio="xMidYMid meet">
  <mask id="fieldMask">
    <rect width="0" height="0" x="100%" y="100%" fill="black" />
    <rect width="100%" height="60%" x="0" y="20%" fill="white" />
  </mask>

  <circle cx="50%" cy="50%" r="15%" fill="none" stroke="white" stroke-width="16px" />
  <circle cx="50%" cy="12.5%" r="15%" fill="none" stroke="white" stroke-width="16px" mask="url(#fieldMask)" />
  <circle cx="50%" cy="87.5%" r="15%" fill="none" stroke="white" stroke-width="16px" mask="url(#fieldMask)" />
  <circle cx="50%" cy="50%" r="12" fill="white" />
  <circle cx="50%" cy="13.25%" r="8" fill="white" />
  <circle cx="50%" cy="86.25%" r="8" fill="white" />
  <circle cx="0" cy="0" r="15" fill="none" stroke="white" stroke-width="16px" />
  <circle cx="0" cy="100%" r="15" fill="none" stroke="white" stroke-width="16px" />
  <circle cx="100%" cy="0" r="15" fill="none" stroke="white" stroke-width="16px" />
  <circle cx="100%" cy="100%" r="15" fill="none" stroke="white" stroke-width="16px" />
  <line x1="0" x2="100%" y1="50%" y2="50%" fill="none" stroke="white" stroke-width="16px" />
  <rect width="50%" height="25%" x="25%" y="-5%" fill="none" stroke="white" stroke-width="16px" />
  <rect width="30%" height="12.5%" x="35%" y="-5%" fill="none" stroke="white" stroke-width="16px" />
  <rect width="50%" height="25%" x="25%" y="80%" fill="none" stroke="white" stroke-width="16px" />
  <rect width="30%" height="12.5%" x="35%" y="92.5%" fill="none" stroke="white" stroke-width="16px" />
</svg>
